<?xml version="1.0" encoding="UTF-8" standalone="no"?>
<!-- Generator: Adobe Illustrator 26.0.3, SVG Export Plug-In . SVG Version: 6.00 Build 0)  -->

<svg
   version="1.0"
   id="katman_1"
   x="0px"
   y="0px"
   viewBox="0 0 260400 27585"
   xml:space="preserve"
   width="260400"
   height="27585"
   xmlns="http://www.w3.org/2000/svg"
   xmlns:svg="http://www.w3.org/2000/svg"><defs
   id="defs31" />
<style
   type="text/css"
   id="style2">
	.st0{fill-rule:evenodd;clip-rule:evenodd;}
</style>
<path
   class="st0"
   d="m -49776.9,-87359 h 61.3 v -61.3 h -61.3 z m 55.1,-6.2 v -48.8 h -48.8 v 48.8 z"
   id="path4"
   style="fill:#aa3a61;fill-opacity:1" />
<path
   d="m -49652,-87384.2 h -6.6 c -1,6 -5,9.4 -10.5,9.4 -7.3,0 -12.1,-5.7 -12.1,-14.8 0,-9 4.6,-14.8 11.7,-14.8 5.8,0 9.5,3.4 10.6,9.5 h 6.6 c -1.3,-8.9 -8.5,-14.7 -17.4,-14.7 -10.8,0 -18.2,8.9 -18.2,20 0,11.5 7.6,20 18.4,20 8.9,0 16.1,-5.7 17.5,-14.6 z"
   id="path6"
   style="fill:#aa3a61;fill-opacity:1" />
<path
   class="st0"
   d="m -49621.7,-87384.2 c 0,-7.6 -5.3,-14.7 -13.8,-14.7 -8.6,0 -13.8,7.1 -13.8,14.7 0,7.6 5.3,14.7 13.8,14.7 8.5,-0.1 13.8,-7.1 13.8,-14.7 z m -21.2,0 c 0,-6 2.7,-10.1 7.3,-10.1 4.7,0 7.4,4.1 7.4,10.1 0,6 -2.7,10.1 -7.4,10.1 -4.7,0 -7.3,-4.1 -7.3,-10.1 z"
   id="path8"
   style="fill:#aa3a61;fill-opacity:1" />
<path
   class="st0"
   d="m -49597.7,-87376 h -0.2 c -1.4,3.9 -4.6,6.5 -8.9,6.5 -7.7,0 -11.9,-6.8 -11.9,-14.7 0,-7.9 4.3,-14.7 11.9,-14.7 4.3,0 7.6,2.5 8.9,6.4 h 0.2 v -16.6 h 6 v 38.9 h -6 z m -7.1,-18.3 c -4.7,0 -7.3,4.1 -7.3,10.1 0,6 2.7,10.1 7.3,10.1 4.7,0 7.3,-4.1 7.3,-10.1 0,-6.1 -2.6,-10.1 -7.3,-10.1 z"
   id="path10"
   style="fill:#aa3a61;fill-opacity:1" />
<path
   class="st0"
   d="m -49561.3,-87378.9 h -6.2 c -0.7,2.3 -2.3,4.7 -5.9,4.7 -4.3,0 -7.3,-3 -7.6,-8.1 h 20.2 c 0.8,-9.8 -4.7,-16.7 -13.1,-16.7 -8.4,0 -13.2,6.9 -13.2,14.7 0,7.8 4.9,14.7 13.3,14.7 6.9,0 11.3,-3.7 12.5,-9.3 z m -12.6,-15.4 c 4.1,0 6.5,2.9 6.9,7.5 h -13.9 c 0.4,-4.6 2.9,-7.5 7,-7.5 z"
   id="path12"
   style="fill:#aa3a61;fill-opacity:1" />
<path
   d="m -49537,-87392.5 c 7.3,1.7 11,5.5 11,11.7 0,6.5 -6.3,11.3 -15.4,11.3 -10.3,0 -15.9,-7.2 -16.5,-14.3 h 6.6 c 0.4,5.1 4.5,9 10,9 5,0 8.6,-2.1 8.6,-5.8 0,-3.2 -2.4,-4.9 -7.4,-6 l -5.6,-1.3 c -7.6,-1.8 -11.4,-5.4 -11.4,-10.8 0,-6.5 6.4,-11 14.3,-11 9.9,0 15,5.4 15.7,12.1 h -6.6 c -0.5,-4.6 -4.4,-6.9 -9,-6.9 -4.5,0 -7.7,1.9 -7.7,5.2 0,2.7 2,3.9 7.7,5.2 z"
   id="path14"
   style="fill:#aa3a61;fill-opacity:1" />
<path
   class="st0"
   d="m -49502.3,-87376 h 0.2 v 5.9 h 6 v -28.2 h -6 v 5.9 h -0.2 c -1.4,-3.9 -4.6,-6.4 -8.9,-6.4 -7.5,0 -11.9,6.8 -11.9,14.7 0,7.9 4.2,14.7 11.9,14.7 4.3,-0.2 7.6,-2.8 8.9,-6.6 z m -14.2,-8.2 c 0,-6 2.7,-10.1 7.3,-10.1 4.6,0 7.4,4.1 7.4,10.1 0,6 -2.8,10.1 -7.4,10.1 -4.6,0 -7.3,-4.1 -7.3,-10.1 z"
   id="path16"
   style="fill:#aa3a61;fill-opacity:1" />
<path
   d="m -49483.7,-87387.1 v 16.9 h -6.2 v -28.2 h 6 v 5.5 h 0.1 c 1.2,-4 4.1,-6.1 8.2,-6.1 6.2,0 9.3,4.2 9.3,10.4 v 18.3 h -6.2 v -16.5 c 0,-5.2 -1.9,-7.6 -5.6,-7.6 -3.7,0 -5.6,2.7 -5.6,7.3 z"
   id="path18"
   style="fill:#aa3a61;fill-opacity:1" />
<path
   class="st0"
   d="m -49441.1,-87376 h 0.2 v 5.9 h 6 v -38.9 h -6 v 16.6 h -0.2 c -1.4,-3.9 -4.6,-6.4 -8.9,-6.4 -7.5,0 -11.9,6.8 -11.9,14.7 0,7.9 4.2,14.7 11.9,14.7 4.2,-0.2 7.5,-2.8 8.9,-6.6 z m -14.3,-8.2 c 0,-6 2.7,-10.1 7.3,-10.1 4.7,0 7.3,4.1 7.3,10.1 0,6 -2.6,10.1 -7.3,10.1 -4.7,0 -7.3,-4.1 -7.3,-10.1 z"
   id="path20"
   style="fill:#aa3a61;fill-opacity:1" />
<path
   class="st0"
   d="m -49413.6,-87398.9 c 7.5,0 11.9,6.8 11.9,14.7 0,7.9 -4.2,14.7 -11.9,14.7 -4.3,0 -7.6,-2.6 -8.9,-6.5 h -0.2 v 5.9 h -6 v -38.9 h 6 v 16.6 h 0.2 c 1.3,-4 4.6,-6.5 8.9,-6.5 z m -2,4.6 c -4.7,0 -7.3,4.1 -7.3,10.1 0,6 2.6,10.1 7.3,10.1 4.7,0 7.3,-4.1 7.3,-10.1 0,-6.1 -2.6,-10.1 -7.3,-10.1 z"
   id="path22"
   style="fill:#aa3a61;fill-opacity:1" />
<path
   class="st0"
   d="m -49371,-87384.2 c 0,-7.6 -5.3,-14.7 -13.8,-14.7 -8.5,0 -13.8,7.1 -13.8,14.7 0,7.6 5.2,14.7 13.8,14.7 8.6,0 13.8,-7.1 13.8,-14.7 z m -21.2,0 c 0,-6 2.7,-10.1 7.3,-10.1 4.7,0 7.4,4.1 7.4,10.1 0,6 -2.7,10.1 -7.4,10.1 -4.6,0 -7.3,-4.1 -7.3,-10.1 z"
   id="path24"
   style="fill:#aa3a61;fill-opacity:1" />
<path
   d="m -49357.3,-87381.1 -7.5,11 h -6.9 l 10.8,-15.2 -9.4,-13 h 6.9 l 6.1,8.8 6.1,-8.8 h 6.9 l -9.4,13 10.8,15.2 h -6.9 z"
   id="path26"
   style="fill:#aa3a61;fill-opacity:1" />
</svg>
